<svg xmlns="http://www.w3.org/2000/svg" viewBox="0 0 100 100">
  <circle cx="50" cy="50" r="47" fill="#1c2430" stroke="#d8b94a" stroke-width="4"/>
  <g stroke="#3a342c" stroke-width="2">
    <line x1="33" y1="26" x2="33" y2="68"/>
    <line x1="50" y1="18" x2="50" y2="68"/>
    <line x1="67" y1="26" x2="67" y2="68"/>
    <line x1="76" y1="68" x2="88" y2="60"/>
  </g>
  <g fill="#f4f1e6">
    <path d="M26 28 L40 28 L38 40 L28 40 Z"/>
    <path d="M25 43 L41 43 L39 56 L27 56 Z"/>
    <path d="M41 20 L59 20 L57 34 L43 34 Z"/>
    <path d="M40 37 L60 37 L58 52 L42 52 Z"/>
    <path d="M39 55 L61 55 L59 66 L41 66 Z"/>
    <path d="M60 28 L74 28 L72 40 L62 40 Z"/>
    <path d="M59 43 L75 43 L73 56 L61 56 Z"/>
  </g>
  <path d="M50 12 L58 15 L50 18 Z" fill="#d8b94a"/>
  <path d="M18 68 L86 68 L76 80 L26 80 Z" fill="#5e442c"/>
  <path d="M18 68 L86 68 L84 72 L20 72 Z" fill="#6e5436"/>
  <path d="M14 80 q6 -5 12 0 t12 0 t12 0 t12 0 t12 0 t12 0" fill="none" stroke="#4496ce" stroke-width="4" stroke-linecap="round"/>
</svg>
